<svg id="visual" viewBox="0 0 960 540" width="960" height="540" xmlns="http://www.w3.org/2000/svg" xmlns:xlink="http://www.w3.org/1999/xlink" version="1.1"><rect x="0" y="0" width="960" height="540" fill="#001220"></rect><defs><linearGradient id="grad1_0" x1="43.8%" y1="0%" x2="100%" y2="100%"><stop offset="14.444444444444446%" stop-color="#009473" stop-opacity="1"></stop><stop offset="85.55555555555554%" stop-color="#009473" stop-opacity="1"></stop></linearGradient></defs><defs><linearGradient id="grad1_1" x1="43.8%" y1="0%" x2="100%" y2="100%"><stop offset="14.444444444444446%" stop-color="#009473" stop-opacity="1"></stop><stop offset="85.55555555555554%" stop-color="#008172" stop-opacity="1"></stop></linearGradient></defs><defs><linearGradient id="grad1_2" x1="43.8%" y1="0%" x2="100%" y2="100%"><stop offset="14.444444444444446%" stop-color="#006d6d" stop-opacity="1"></stop><stop offset="85.55555555555554%" stop-color="#008172" stop-opacity="1"></stop></linearGradient></defs><defs><linearGradient id="grad1_3" x1="43.8%" y1="0%" x2="100%" y2="100%"><stop offset="14.444444444444446%" stop-color="#006d6d" stop-opacity="1"></stop><stop offset="85.55555555555554%" stop-color="#005964" stop-opacity="1"></stop></linearGradient></defs><defs><linearGradient id="grad1_4" x1="43.8%" y1="0%" x2="100%" y2="100%"><stop offset="14.444444444444446%" stop-color="#004657" stop-opacity="1"></stop><stop offset="85.55555555555554%" stop-color="#005964" stop-opacity="1"></stop></linearGradient></defs><defs><linearGradient id="grad1_5" x1="43.8%" y1="0%" x2="100%" y2="100%"><stop offset="14.444444444444446%" stop-color="#004657" stop-opacity="1"></stop><stop offset="85.55555555555554%" stop-color="#003446" stop-opacity="1"></stop></linearGradient></defs><defs><linearGradient id="grad1_6" x1="43.8%" y1="0%" x2="100%" y2="100%"><stop offset="14.444444444444446%" stop-color="#002334" stop-opacity="1"></stop><stop offset="85.55555555555554%" stop-color="#003446" stop-opacity="1"></stop></linearGradient></defs><defs><linearGradient id="grad1_7" x1="43.8%" y1="0%" x2="100%" y2="100%"><stop offset="14.444444444444446%" stop-color="#002334" stop-opacity="1"></stop><stop offset="85.55555555555554%" stop-color="#001220" stop-opacity="1"></stop></linearGradient></defs><defs><linearGradient id="grad2_0" x1="0%" y1="0%" x2="56.3%" y2="100%"><stop offset="14.444444444444446%" stop-color="#009473" stop-opacity="1"></stop><stop offset="85.55555555555554%" stop-color="#009473" stop-opacity="1"></stop></linearGradient></defs><defs><linearGradient id="grad2_1" x1="0%" y1="0%" x2="56.3%" y2="100%"><stop offset="14.444444444444446%" stop-color="#008172" stop-opacity="1"></stop><stop offset="85.55555555555554%" stop-color="#009473" stop-opacity="1"></stop></linearGradient></defs><defs><linearGradient id="grad2_2" x1="0%" y1="0%" x2="56.3%" y2="100%"><stop offset="14.444444444444446%" stop-color="#008172" stop-opacity="1"></stop><stop offset="85.55555555555554%" stop-color="#006d6d" stop-opacity="1"></stop></linearGradient></defs><defs><linearGradient id="grad2_3" x1="0%" y1="0%" x2="56.3%" y2="100%"><stop offset="14.444444444444446%" stop-color="#005964" stop-opacity="1"></stop><stop offset="85.55555555555554%" stop-color="#006d6d" stop-opacity="1"></stop></linearGradient></defs><defs><linearGradient id="grad2_4" x1="0%" y1="0%" x2="56.3%" y2="100%"><stop offset="14.444444444444446%" stop-color="#005964" stop-opacity="1"></stop><stop offset="85.55555555555554%" stop-color="#004657" stop-opacity="1"></stop></linearGradient></defs><defs><linearGradient id="grad2_5" x1="0%" y1="0%" x2="56.3%" y2="100%"><stop offset="14.444444444444446%" stop-color="#003446" stop-opacity="1"></stop><stop offset="85.55555555555554%" stop-color="#004657" stop-opacity="1"></stop></linearGradient></defs><defs><linearGradient id="grad2_6" x1="0%" y1="0%" x2="56.3%" y2="100%"><stop offset="14.444444444444446%" stop-color="#003446" stop-opacity="1"></stop><stop offset="85.55555555555554%" stop-color="#002334" stop-opacity="1"></stop></linearGradient></defs><defs><linearGradient id="grad2_7" x1="0%" y1="0%" x2="56.3%" y2="100%"><stop offset="14.444444444444446%" stop-color="#001220" stop-opacity="1"></stop><stop offset="85.55555555555554%" stop-color="#002334" stop-opacity="1"></stop></linearGradient></defs><g transform="translate(960, 0)"><path d="M0 486C-48.9 441 -97.8 396 -155.8 376C-213.7 356 -280.7 361 -333.8 333.8C-386.8 306.5 -426 247 -449 186C-472.1 125 -479 62.5 -486 0L0 0Z" fill="#011a2a"></path><path d="M0 425.3C-42.8 385.9 -85.6 346.5 -136.3 329C-187 311.5 -245.6 315.9 -292 292C-338.5 268.2 -372.7 216.1 -392.9 162.7C-413.1 109.4 -419.2 54.7 -425.2 0L0 0Z" fill="#002b3d"></path><path d="M0 364.5C-36.7 330.8 -73.4 297 -116.8 282C-160.3 267 -210.5 270.8 -250.3 250.3C-290.1 229.9 -319.5 185.2 -336.8 139.5C-354 93.7 -359.3 46.9 -364.5 0L0 0Z" fill="#003d4f"></path><path d="M0 303.8C-30.6 275.6 -61.1 247.5 -97.3 235C-133.6 222.5 -175.4 225.6 -208.6 208.6C-241.8 191.6 -266.2 154.4 -280.6 116.2C-295 78.1 -299.4 39.1 -303.7 0L0 0Z" fill="#00505e"></path><path d="M0 243C-24.5 220.5 -48.9 198 -77.9 188C-106.8 178 -140.3 180.5 -166.9 166.9C-193.4 153.2 -213 123.5 -224.5 93C-236 62.5 -239.5 31.2 -243 0L0 0Z" fill="#006369"></path><path d="M0 182.3C-18.3 165.4 -36.7 148.5 -58.4 141C-80.1 133.5 -105.3 135.4 -125.2 125.2C-145.1 114.9 -159.7 92.6 -168.4 69.7C-177 46.9 -179.6 23.4 -182.2 0L0 0Z" fill="#007770"></path><path d="M0 121.5C-12.2 110.3 -24.5 99 -38.9 94C-53.4 89 -70.2 90.3 -83.4 83.4C-96.7 76.6 -106.5 61.7 -112.3 46.5C-118 31.2 -119.8 15.6 -121.5 0L0 0Z" fill="#008a73"></path><path d="M0 60.8C-6.1 55.1 -12.2 49.5 -19.5 47C-26.7 44.5 -35.1 45.1 -41.7 41.7C-48.4 38.3 -53.2 30.9 -56.1 23.2C-59 15.6 -59.9 7.8 -60.7 0L0 0Z" fill="#009473"></path></g><g transform="translate(0, 540)"><path d="M0 -486C45.7 -436.8 91.4 -387.6 153.8 -371.4C216.3 -355.2 295.4 -372 343.7 -343.7C391.9 -315.3 409.2 -242 427.8 -177.2C446.3 -112.4 466.2 -56.2 486 0L0 0Z" fill="#011a2a"></path><path d="M0 -425.2C40 -382.2 80 -339.2 134.6 -325C189.2 -310.8 258.5 -325.5 300.7 -300.7C342.9 -275.9 358 -211.7 374.3 -155C390.5 -98.3 407.9 -49.2 425.3 0L0 0Z" fill="#002b3d"></path><path d="M0 -364.5C34.3 -327.6 68.6 -290.7 115.4 -278.5C162.2 -266.4 221.6 -279 257.7 -257.7C293.9 -236.5 306.9 -181.5 320.8 -132.9C334.7 -84.3 349.6 -42.1 364.5 0L0 0Z" fill="#003d4f"></path><path d="M0 -303.7C28.6 -273 57.1 -242.3 96.1 -232.1C135.2 -222 184.6 -232.5 214.8 -214.8C244.9 -197.1 255.7 -151.2 267.3 -110.7C279 -70.2 291.4 -35.1 303.8 0L0 0Z" fill="#00505e"></path><path d="M0 -243C22.9 -218.4 45.7 -193.8 76.9 -185.7C108.1 -177.6 147.7 -186 171.8 -171.8C195.9 -157.7 204.6 -121 213.9 -88.6C223.2 -56.2 233.1 -28.1 243 0L0 0Z" fill="#006369"></path><path d="M0 -182.2C17.1 -163.8 34.3 -145.4 57.7 -139.3C81.1 -133.2 110.8 -139.5 128.9 -128.9C147 -118.3 153.4 -90.7 160.4 -66.4C167.4 -42.1 174.8 -21.1 182.3 0L0 0Z" fill="#007770"></path><path d="M0 -121.5C11.4 -109.2 22.9 -96.9 38.5 -92.8C54.1 -88.8 73.9 -93 85.9 -85.9C98 -78.8 102.3 -60.5 106.9 -44.3C111.6 -28.1 116.5 -14 121.5 0L0 0Z" fill="#008a73"></path><path d="M0 -60.7C5.7 -54.6 11.4 -48.5 19.2 -46.4C27 -44.4 36.9 -46.5 43 -43C49 -39.4 51.1 -30.2 53.5 -22.1C55.8 -14 58.3 -7 60.8 0L0 0Z" fill="#009473"></path></g></svg>