<?xml version="1.0" standalone="no"?><svg xmlns="http://www.w3.org/2000/svg" viewBox="0 0 1440 320"><path fill="#001220" fill-opacity="1" d="M0,128L21.8,144C43.6,160,87,192,131,186.7C174.5,181,218,139,262,106.7C305.5,75,349,53,393,58.7C436.4,64,480,96,524,133.3C567.3,171,611,213,655,202.7C698.2,192,742,128,785,117.3C829.1,107,873,149,916,160C960,171,1004,149,1047,160C1090.9,171,1135,213,1178,224C1221.8,235,1265,213,1309,176C1352.7,139,1396,85,1418,58.7L1440,32L1440,0L1418.2,0C1396.4,0,1353,0,1309,0C1265.5,0,1222,0,1178,0C1134.5,0,1091,0,1047,0C1003.6,0,960,0,916,0C872.7,0,829,0,785,0C741.8,0,698,0,655,0C610.9,0,567,0,524,0C480,0,436,0,393,0C349.1,0,305,0,262,0C218.2,0,175,0,131,0C87.3,0,44,0,22,0L0,0Z"></path></svg>